HIERARCHY
ROOT hips
{
  OFFSET 0 9.313263304106702 1.2146308026317778
  CHANNELS 6 Xposition Yposition Zposition Yrotation Xrotation Zrotation
  JOINT spine
  {
    OFFSET -6.402521e-31 0.5173342420023708 0
    CHANNELS 3 Yrotation Xrotation Zrotation
    JOINT chest
    {
      OFFSET 0 1.130544299341115 0
      CHANNELS 3 Yrotation Xrotation Zrotation
      JOINT upperChest
      {
        OFFSET 0 1.0863555061129995 0
        CHANNELS 3 Yrotation Xrotation Zrotation
        JOINT neck
        {
          OFFSET 0 1.3773706506454462 0
          CHANNELS 3 Yrotation Xrotation Zrotation
          JOINT head
          {
            OFFSET 0 0.7374408940073979 0
            CHANNELS 3 Yrotation Xrotation Zrotation
            JOINT leftEye
            {
              OFFSET 0.25066580148932727 0.6408406698778757 0.15963719178883284
              CHANNELS 3 Yrotation Xrotation Zrotation
              End Site
              {
                OFFSET 0.25066580148932727 0.6408406698778757 0.15963719178883284
              }
            }
            JOINT rightEye
            {
              OFFSET -0.25066576739704244 0.6408406384191823 0.15963727561643756
              CHANNELS 3 Yrotation Xrotation Zrotation
              End Site
              {
                OFFSET -0.25066576739704244 0.6408406384191823 0.15963727561643756
              }
            }
          }
        }
        JOINT leftShoulder
        {
          OFFSET 0.3761817444281191 1.0539491987447769 0
          CHANNELS 3 Yrotation Xrotation Zrotation
          JOINT leftUpperArm
          {
            OFFSET 0.8702844380000002 0 0
            CHANNELS 3 Yrotation Xrotation Zrotation
            JOINT leftLowerArm
            {
              OFFSET 2.198527310000323 0 0
              CHANNELS 3 Yrotation Xrotation Zrotation
              JOINT leftHand
              {
                OFFSET 2.146852313968281 0 0
                CHANNELS 3 Yrotation Xrotation Zrotation
                JOINT leftIndexProximal
                {
                  OFFSET 0.6585177834681599 0.07380250427007962 0.18382213159631788
                  CHANNELS 3 Yrotation Xrotation Zrotation
                  JOINT leftIndexIntermediate
                  {
                    OFFSET 0.3323021288626682 -0.009606893929485771 -0.012820872253340998
                    CHANNELS 3 Yrotation Xrotation Zrotation
                    JOINT leftIndexDistal
                    {
                      OFFSET 0.2045908926985518 -0.0071133989147997845 -0.006828784783599051
                      CHANNELS 3 Yrotation Xrotation Zrotation
                      End Site
                      {
                        OFFSET 0.2045908926985518 -0.0071133989147997845 -0.006828784783599051
                      }
                    }
                  }
                }
                JOINT leftLittleProximal
                {
                  OFFSET 0.6110054258835662 0.07380246363125398 -0.29175655876064077
                  CHANNELS 3 Yrotation Xrotation Zrotation
                  JOINT leftLittleIntermediate
                  {
                    OFFSET 0.3144281999999998 -2.5124724523095665e-9 1.8658118799974588e-7
                    CHANNELS 3 Yrotation Xrotation Zrotation
                    JOINT leftLittleDistal
                    {
                      OFFSET 0.18116185580251631 0.002815456192251098 0.0034826415518049436
                      CHANNELS 3 Yrotation Xrotation Zrotation
                      End Site
                      {
                        OFFSET 0.18116185580251631 0.002815456192251098 0.0034826415518049436
                      }
                    }
                  }
                }
                JOINT leftMiddleProximal
                {
                  OFFSET 0.6637478005691111 0.07380246480054087 0.02046981859247815
                  CHANNELS 3 Yrotation Xrotation Zrotation
                  JOINT leftMiddleIntermediate
                  {
                    OFFSET 0.3705733999999994 -2.9611069152224445e-9 9.35054791928458e-8
                    CHANNELS 3 Yrotation Xrotation Zrotation
                    JOINT leftMiddleDistal
                    {
                      OFFSET 0.22861063500000056 -1.82673876025774e-9 -1.6740782024515788e-7
                      CHANNELS 3 Yrotation Xrotation Zrotation
                      End Site
                      {
                        OFFSET 0.22861063500000056 -1.82673876025774e-9 -1.6740782024515788e-7
                      }
                    }
                  }
                }
                JOINT leftRingProximal
                {
                  OFFSET 0.6561845547265777 0.07380246406440083 -0.13588087571513918
                  CHANNELS 3 Yrotation Xrotation Zrotation
                  JOINT leftRingIntermediate
                  {
                    OFFSET 0.3437531000000005 -2.746796123886952e-9 1.4935781944558357e-7
                    CHANNELS 3 Yrotation Xrotation Zrotation
                    JOINT leftRingDistal
                    {
                      OFFSET 0.1983118991198174 -0.002467117924596085 -0.004538141969590015
                      CHANNELS 3 Yrotation Xrotation Zrotation
                      End Site
                      {
                        OFFSET 0.1983118991198174 -0.002467117924596085 -0.004538141969590015
                      }
                    }
                  }
                }
                JOINT leftThumbProximal
                {
                  OFFSET 0.09767004258864787 -0.14930060425447422 -0.07008212897521154
                  CHANNELS 3 Yrotation Xrotation Zrotation
                  JOINT leftThumbIntermediate
                  {
                    OFFSET 0.36682123028154767 -0.015768465060082004 0.28693641268151077
                    CHANNELS 3 Yrotation Xrotation Zrotation
                    JOINT leftThumbDistal
                    {
                      OFFSET 0.21091084272403915 -0.016756648201192714 0.1933767059105508
                      CHANNELS 3 Yrotation Xrotation Zrotation
                      End Site
                      {
                        OFFSET 0.21091084272403915 -0.016756648201192714 0.1933767059105508
                      }
                    }
                  }
                }
              }
            }
          }
        }
        JOINT rightShoulder
        {
          OFFSET -0.37618174442811925 1.0539491987447769 0
          CHANNELS 3 Yrotation Xrotation Zrotation
          JOINT rightUpperArm
          {
            OFFSET -0.870284438 0 0
            CHANNELS 3 Yrotation Xrotation Zrotation
            JOINT rightLowerArm
            {
              OFFSET -2.1985273100003235 0 0
              CHANNELS 3 Yrotation Xrotation Zrotation
              JOINT rightHand
              {
                OFFSET -2.1468523139682802 0 0
                CHANNELS 3 Yrotation Xrotation Zrotation
                JOINT rightIndexProximal
                {
                  OFFSET -0.6585177834681599 0.07380250427007962 0.18382213159631788
                  CHANNELS 3 Yrotation Xrotation Zrotation
                  JOINT rightIndexIntermediate
                  {
                    OFFSET -0.3323021288626682 -0.009606893929485771 -0.012820872253340998
                    CHANNELS 3 Yrotation Xrotation Zrotation
                    JOINT rightIndexDistal
                    {
                      OFFSET -0.2045908926985518 -0.0071133989147997845 -0.006828784783599051
                      CHANNELS 3 Yrotation Xrotation Zrotation
                      End Site
                      {
                        OFFSET -0.2045908926985518 -0.0071133989147997845 -0.006828784783599051
                      }
                    }
                  }
                }
                JOINT rightLittleProximal
                {
                  OFFSET -0.6110054258835662 0.07380246363125398 -0.29175655876064077
                  CHANNELS 3 Yrotation Xrotation Zrotation
                  JOINT rightLittleIntermediate
                  {
                    OFFSET -0.3144281999999998 -2.5124724523095665e-9 1.8658118799974588e-7
                    CHANNELS 3 Yrotation Xrotation Zrotation
                    JOINT rightLittleDistal
                    {
                      OFFSET -0.18116185580251631 0.002815456192251098 0.0034826415518049436
                      CHANNELS 3 Yrotation Xrotation Zrotation
                      End Site
                      {
                        OFFSET -0.18116185580251631 0.002815456192251098 0.0034826415518049436
                      }
                    }
                  }
                }
                JOINT rightMiddleProximal
                {
                  OFFSET -0.6637478005691111 0.07380246480054087 0.02046981859247815
                  CHANNELS 3 Yrotation Xrotation Zrotation
                  JOINT rightMiddleIntermediate
                  {
                    OFFSET -0.3705733999999994 -2.9611069152224445e-9 9.35054791928458e-8
                    CHANNELS 3 Yrotation Xrotation Zrotation
                    JOINT rightMiddleDistal
                    {
                      OFFSET -0.22861063500000056 -1.82673876025774e-9 -1.6740782024515788e-7
                      CHANNELS 3 Yrotation Xrotation Zrotation
                      End Site
                      {
                        OFFSET -0.22861063500000056 -1.82673876025774e-9 -1.6740782024515788e-7
                      }
                    }
                  }
                }
                JOINT rightRingProximal
                {
                  OFFSET -0.6561845547265777 0.07380246406440083 -0.13588087571513918
                  CHANNELS 3 Yrotation Xrotation Zrotation
                  JOINT rightRingIntermediate
                  {
                    OFFSET -0.3437531000000005 -2.746796123886952e-9 1.4935781944558357e-7
                    CHANNELS 3 Yrotation Xrotation Zrotation
                    JOINT rightRingDistal
                    {
                      OFFSET -0.1983118991198174 -0.002467117924596085 -0.004538141969590015
                      CHANNELS 3 Yrotation Xrotation Zrotation
                      End Site
                      {
                        OFFSET -0.1983118991198174 -0.002467117924596085 -0.004538141969590015
                      }
                    }
                  }
                }
                JOINT rightThumbProximal
                {
                  OFFSET -0.09767004258864787 -0.14930060425447422 -0.07008212897521154
                  CHANNELS 3 Yrotation Xrotation Zrotation
                  JOINT rightThumbIntermediate
                  {
                    OFFSET -0.36682123028154767 -0.015768465060082004 0.28693641268151077
                    CHANNELS 3 Yrotation Xrotation Zrotation
                    JOINT rightThumbDistal
                    {
                      OFFSET -0.21091084272403915 -0.016756648201192714 0.1933767059105508
                      CHANNELS 3 Yrotation Xrotation Zrotation
                      End Site
                      {
                        OFFSET -0.21091084272403915 -0.016756648201192714 0.1933767059105508
                      }
                    }
                  }
                }
              }
            }
          }
        }
      }
    }
  }
  JOINT leftUpperLeg
  {
    OFFSET 0.7715603 -0.3993844658041501 0
    CHANNELS 3 Yrotation Xrotation Zrotation
    JOINT leftLowerLeg
    {
      OFFSET 0 -3.529830000249343 0
      CHANNELS 3 Yrotation Xrotation Zrotation
      JOINT leftFoot
      {
        OFFSET 0 -4.154939295409685 0.004208579085223096
        CHANNELS 3 Yrotation Xrotation Zrotation
        JOINT leftToes
        {
          OFFSET 0 -0.6353414391261847 1.10414981190622
          CHANNELS 3 Yrotation Xrotation Zrotation
          End Site
          {
            OFFSET 0 -0.6015820691747853 1.10414981190622
          }
        }
      }
    }
  }
  JOINT rightUpperLeg
  {
    OFFSET -0.7715603 -0.3993844658041501 0
    CHANNELS 3 Yrotation Xrotation Zrotation
    JOINT rightLowerLeg
    {
      OFFSET 0 -3.529830000249343 0
      CHANNELS 3 Yrotation Xrotation Zrotation
      JOINT rightFoot
      {
        OFFSET 0 -4.154939295409685 0.004208579085223096
        CHANNELS 3 Yrotation Xrotation Zrotation
        JOINT rightToes
        {
          OFFSET 0 -0.6353414391261847 1.10414981190622
          CHANNELS 3 Yrotation Xrotation Zrotation
          End Site
          {
            OFFSET 0 -0.6015820691747853 1.10414981190622
          }
        }
      }
    }
  }
}
MOTION
Frames: 4
Frame Time: 0.03333333333333333
0.026715932921929794 8.051913001320578 1.1354232739105754 8.822388346987806 11.449255499616916 6.773352777813789 -13.485032612965151 5.2545687868731985 -10.206402864906035 -3.386497817857248 2.789244766300239 8.090062202840508 0 0 0 0.6839827955211021 0.32467710102549835 -1.6557631629834109 6.051142179987217 -20.51061791876974 -1.9838523161311379 0 0 0 0 0 0 -3.9911012596890454 1.7057290548649187 -3.450297226613636 -13.441108437643722 -32.767866023023416 -51.63674868443237 -100.27071381533398 -0.000052715028285997784 0.0000698616283878846 -2.288746863208865 1.610323650896682 4.206353621019676 0.22341255149316452 0.003610020532359743 -1.8937797970335917 0.9949057965407098 0.07121388514924691 -8.172655553553318 0.10666321673777607 0.0009355145521701506 -0.9469446598473529 4.51539496844547 0.12524545197786838 -1.379183228543128 -3.0984332554675 0.09267891728388696 -8.682294793976657 0.8604323692742076 0.08037493775989261 -7.22558998276779 0.22298740215505888 0.003595271259086259 -1.8778993327205138 0.9873113737505672 0.07032381210386245 -8.188622108103175 0.11665452385119168 0.0009758166911868829 -0.9469442330188387 0.22920940348018426 0.0038008260193645197 -1.893779583706755 0.9829695535868784 0.07032189778182311 -8.172663159484944 0.8697322667998096 0.0550024579520275 -7.225829682046252 10.241419489778014 -7.470474649564516 17.504421938239062 7.084543872658285 3.549215055599429 1.030063857442492 0.916570575010353 -0.821806389884965 2.3783483366868166 0.8502252333950522 0.6488890460022978 -0.5638749129577206 -7.997342929342513 51.82348820959757 57.478555682099454 86.20633567939491 0.000008504141662859732 -0.000021433864865018936 -26.314319868943034 3.094306015188339 -12.893743151170543 -0.40594095987834317 0.011789855413308544 3.1786456515559856 -1.9606942786558905 0.2864122623459215 16.550750802340854 -0.20376127305527048 0.0026716188648521827 1.5892717612280158 -0.32765961418088435 0.0074383820181795155 3.178056199779207 -1.8990438817226698 0.2448033691381656 16.551402254606117 -0.32010550078970335 0.0012130829096577193 2.1595595118834865 -0.4445814991640239 0.013934268062585657 3.1786369138396 -1.893812910022745 0.27803181204616273 16.550889931963198 -0.23056230437542816 0.0025990501892523463 1.5892718679086701 -0.3692973962628203 0.009755816371279596 3.178552354674996 -2.0146484579329362 0.29154190637961114 16.550664050827642 -0.20655327839828702 0.0032501424333693132 1.589270801102128 -16.05550671172755 -3.6475384527839605 -8.281266121808137 -20.81635100032455 2.9736598188808627 -7.15807380096436 -5.616198335840674 -1.7006505932988063 -4.827621685981478 9.056710094204456 -7.085415915934771 -1.769742702813527 -13.590776877156024 36.55420555709521 -15.373659639229334 -10.76752992531963 -19.907551996849627 14.061986686884953 0.01840820448095406 -14.453117495052908 -0.2888878639922967 17.749639101815696 -57.26289194194585 -22.94235455238337 -171.0115132008443 47.96616152668903 -169.78619412027314 0.5206266143445114 -6.035507380139259 -5.4165403882154415 -0.0000032002814458740254 -0.11150182135308451 -0.000003856298307949314
0.07292508401653983 8.153303319757633 1.4944693538062883 8.936651239854731 11.9978236656868 4.559131098855877 -16.614342752319303 -0.49628289494121786 -6.227424960473341 -4.121901245587068 7.026447413250659 5.972793511871868 0 0 0 1.3552888701490569 -0.26452597540428613 -1.1906363098417367 9.723939863521718 -17.34635368847922 -3.2913863615044536 0 0 0 0 0 0 -1.7699107514373187 1.1602103968229742 -1.3604651611609866 -17.417754346336366 -40.134246710726224 -43.34518473140735 -103.42700812287859 -0.00006816509589062722 0.00008074506677639373 2.242049978202841 -10.125025461768043 5.363033166068938 0.22341287165585663 0.0036101922876053258 -1.8937755304968524 0.9949079306546607 0.07121908783642271 -8.172652173139166 0.10668392071271862 0.0009354518114798293 -0.9469382574196293 4.515393266193945 0.12525880556321178 -1.3791823750148016 -3.0984616019790563 0.09268790859936296 -8.682303233886557 0.8604458147058326 0.08038141443978536 -7.225599299705625 0.22298669512911506 0.003600962110681944 -1.8778929328569827 0.9873028372754338 0.07031997011956058 -8.188642031126014 0.11668047051245757 0.0009650889711255766 -0.9469524494677181 0.2292096969625224 0.003800996940846811 -1.8937751038431772 0.9829716877085451 0.07032710046889887 -8.172659779070923 0.869746032320361 0.05500956828895188 -7.225833070020098 11.417975244134952 -9.03262778542018 19.21002923430472 8.291607840046712 3.6433238091170987 1.217670805299823 1.51705425752896 -0.7641491596944975 2.435553126658437 0.6256712545683654 0.5173082671152597 -2.783576046022712 -12.647075258213707 63.69617347284232 51.563866878697134 94.09453295217065 0.000022344949969299325 -0.0000015542317328601702 -16.228868545280584 -7.127280428191812 -14.476685852445973 -0.5619360192959082 0.022635859480539977 4.461715977651568 -2.1101579309356904 0.33240801509373075 17.833065725173626 -0.28190910996416046 0.005271528669671866 2.2308548130417867 -0.5642942099767209 0.02258102286229239 5.123636163160989 -2.149368717352394 0.31817260418734516 18.690083693456625 -0.6956780516419486 0.020145383237873116 5.245124292904546 -0.6005187723103663 0.025644381319478993 4.461699805109993 -2.0434711086898125 0.3233985812239706 17.833225027150746 -0.30871108514622336 0.005169701571075439 2.230855026323436 -0.6058311092527553 0.02631372658673608 5.1241184567818046 -2.163990542590628 0.3379269557345647 17.83299304241525 -0.2847009031469211 0.006103040422330151 2.2308429496159663 -18.56963166820233 -3.3863570191344134 -5.896839307993793 -23.300374400500434 2.893094834190008 -7.507072078611405 -6.853201196534876 -1.6437441143543579 -4.93419863607957 14.857461231434241 11.907324393665172 4.877279791866435 -8.64427212835953 21.047330032632782 -9.019951736921797 -0.904112386154882 0.4922009579909004 5.752916489673783 0.0036544482349851167 -13.216846238214197 -0.5895559805272754 20.037610281658722 -62.49171509250536 -24.428291572489844 -159.15097309794618 63.56328955449053 -156.53003378286147 -1.692201269835184 -2.630411201730353 -0.08329498502981426 -0.000004193158798458617 -0.039792955442869656 -0.0000042246842604220406
0.1174194568937475 8.389231941916725 1.614751933358332 9.052539489707257 12.286704790398085 3.2831959460651596 -18.192991701360274 -3.2890532159161534 -3.197724748212944 -4.416174035591021 9.103809500979592 4.820230158662654 0 0 0 1.682886995167908 -0.4636935310288992 -1.2496552580457665 10.993720084613587 -15.186326203179776 -3.6115133041809266 0 0 0 0 0 0 -1.3336314628927748 1.0699840037583068 -1.3645261954460497 -21.74100773449991 -38.347663546928246 -37.30653255786588 -112.27967250682136 -0.00005651040037005214 0.00010235884376258077 14.442054325397319 -18.97992911941521 7.547111438180894 0.22342270331851927 0.00361733180298364 -1.8937675245470362 0.9949109184141873 0.07121010986598894 -8.172652173139166 0.10667605667069313 0.0009331172741655497 -0.9469381507125004 4.51539581957123 0.12525402975546582 -1.3791731995852528 -3.098448814079294 0.09269056330526804 -8.682295637967666 0.8604343434050474 0.08037731232018273 -7.225604381671555 0.2229936319874287 0.0036041116516537116 -1.8778851411100412 0.9872991025675492 0.07031600140313794 -8.188637805777827 0.11667304002900485 0.000964988398424313 -0.9469328153560456 0.22921951528073672 0.0038081356224633368 -1.8937673112202091 0.9829747821849569 0.070318135838861 -8.172660624174434 0.8697392029148288 0.055008804561392885 -7.225832223026642 11.854684541052706 -9.51746282113274 19.8880920734007 11.70692387634005 3.8878655699576643 1.7584590059169791 3.215339365205036 -0.6043946382315655 2.6004603438957283 0.5290302225213739 0.471696805025258 -4.3114609032093245 -23.362282861929014 67.63199299314353 45.744614600410905 97.6317204977903 0.000009759811216438568 -0.000018925232231784468 -11.338957252909356 -13.670330950117588 -15.480357473228679 -0.7936655513160723 0.04523017772211223 6.372033378065081 -2.3306903686276383 0.407058819867574 19.742078749231727 -0.39819784058001173 0.010767800793779751 3.186042581591845 -0.9145239528575392 0.05988011927156891 8.013539982454633 -2.5157284186825444 0.44427888250369946 21.866317508248844 -1.2082792088347658 0.0789463262749463 9.478841136498184 -0.8321266626343023 0.04952231275353568 6.37200155933335 -2.264319060513142 0.3971214236403831 19.742273222967953 -0.42500189098318286 0.010622439157866289 3.1860430078188435 -0.9558177434314343 0.06570374616293496 8.013992513330484 -2.38433523847497 0.4131416860288521 19.741975433270948 -0.4009685716672003 0.01193837117653733 3.186043860272839 -19.029195259525178 -3.1530032934329104 -4.353966999061019 -23.29307800193633 2.8933686041675015 -7.506087307870923 -6.849593613807505 -1.6439058643042797 -4.933881166792882 14.439971429205563 20.207851265799558 6.890000394252438 0.21123782917830203 22.58972363702932 -0.8501287483478313 0.9442503037794276 19.51361260130782 9.008587771589465 0.0000026817256393579278 0.2929114838434746 0.000007849511932416406 19.956983202340176 -64.19273892779479 -24.56497391450187 -108.47759926216887 81.4497843335944 -102.4674368993863 -2.9299454124855364 0.2562477273163676 0.7135322304907478 0.0000015194244436574865 0.02038745309462868 0.0000020266998420376808
0.11433609507300636 8.573851151899857 1.6402908980633657 8.603203634812902 12.308010347075632 3.006316190062037 -17.871996048586148 -3.4521992233289724 -2.6839753531585715 -4.17388574648051 9.69958956439607 5.464408688369275 0 0 0 1.7145793155872724 -0.7893464957171288 -1.2689689040126417 10.818108237415426 -15.207092130567444 -4.094761115560907 0 0 0 0 0 0 -2.489512469083724 1.343184744502758 -2.1320610748153728 -21.983869894036662 -29.001305267532896 -39.79383783372473 -117.6386306861082 -0.00007402549455027708 0.00011883912692045675 22.031557642569847 -19.568888594982177 8.698209955446606 0.22340413388238012 0.003606110599232755 -1.893778303745735 0.9949222292180603 0.0712111637436475 -8.17265132803562 0.10668558156637743 0.000935173230308353 -0.9469514891035652 4.515386457187763 0.12526468861130227 -1.379188563095155 -3.0984309110191077 0.0926648900313351 -8.682307453841364 0.8604295414651634 0.08037501780125071 -7.22559337074523 0.222978771102495 0.003595845305137628 -1.8778980527478115 0.9873130810455887 0.0703327033626734 -8.18863949591711 0.11668189791233045 0.0009548792265309129 -0.9469480744754627 0.2292009725330109 0.0037969156693550264 -1.893778090418898 0.9829859863236414 0.07031918304638765 -8.17265893396741 0.8697341342153943 0.05501166937350287 -7.225829682046252 11.65568992042465 -8.922430203919173 19.700229579743674 11.706918992089399 3.8878672814436674 1.7584746158722095 3.2153357421775413 -0.6043936243189498 2.600459064482859 0.8253556772473318 0.5411818641357086 -3.8859932032648397 -28.814223071155162 62.59728048085504 47.982322891551334 97.04319984571809 0.000006537941689440432 -0.000006451196513280027 -14.784070815417524 -15.165923227500503 -15.967709378963445 -0.9969928653723659 0.07152191091151476 8.054160011319945 -2.5227452945461812 0.4788469784236212 21.422935874771554 -0.5005104343276494 0.017214214736580417 4.02717392584156 -1.2261759106487797 0.10823626455397509 10.600989181717509 -2.8374096363078873 0.5742515786935457 24.709750080117313 -1.6454990475660445 0.15985906403968064 13.126574016419855 -1.0353116052629583 0.07694043659777636 8.054110980855663 -2.45667695991376 0.4681015500122439 21.423161601577224 -0.5273168457675472 0.017030548340255813 4.027174351674353 -1.2671645537577085 0.11592019538637661 10.601412319415545 -2.5762055432302815 0.4854127302196376 21.422791560726697 -0.5032560077802383 0.018690616227087845 4.0271752033399375 -17.66054627964693 -2.903106395265436 -4.579480300297353 -21.57870429746666 2.950540970056344 -7.265563284426902 -5.995805230197587 -1.6829316554203766 -4.860201201803649 6.069387562486141 21.571020380152657 3.2879087824347044 -8.914804925111874 39.470504893615804 -4.417535243868518 0.8061873596266632 22.973308868746848 3.870905416922568 -3.8778099757814304e-7 -0.3616416545375125 0.0000012317185953839554 21.876498211348245 -59.00943055257651 -23.99042546724383 -18.579716876990954 64.33859263787603 -8.290305311099136 -6.367007548698011 1.075635588583759 5.866300455915517 0.0000014520156751333537 -0.7679049788297192 0.0000010789112394103334
